<svg width="48" height="48" viewBox="0 0 48 48" fill="none" xmlns="http://www.w3.org/2000/svg">
<rect width="48" height="48" rx="8" fill="#0E7C86"/>
<path d="M40 14C40 17.1375 36.3062 21.8188 34.7125 23.6875C34.475 23.9625 34.125 24.0688 33.8062 24H28C26.8937 24 26 24.8937 26 26C26 27.1063 26.8937 28 28 28H34C37.3125 28 40 30.6875 40 34C40 37.3125 37.3125 40 34 40H16.725C17.2688 39.3813 17.9313 38.5875 18.6 37.7C18.9938 37.175 19.4 36.6 19.7875 36H34C35.1063 36 36 35.1063 36 34C36 32.8937 35.1063 32 34 32H28C24.6875 32 22 29.3125 22 26C22 22.6875 24.6875 20 28 20H30.4875C29.175 18.0312 28 15.7688 28 14C28 10.6875 30.6875 8 34 8C37.3125 8 40 10.6875 40 14ZM15.3187 38.5688C15.0812 38.8375 14.8688 39.075 14.6875 39.275L14.575 39.4L14.5625 39.3875C14.1875 39.675 13.65 39.6375 13.3125 39.275C11.7375 37.5625 8 33.1562 8 30C8 26.6875 10.6875 24 14 24C17.3125 24 20 26.6875 20 30C20 31.875 18.6812 34.1875 17.2812 36.1187C16.6125 37.0375 15.925 37.8687 15.3562 38.525L15.3187 38.5688ZM16 30C16 29.4696 15.7893 28.9609 15.4142 28.5858C15.0391 28.2107 14.5304 28 14 28C13.4696 28 12.9609 28.2107 12.5858 28.5858C12.2107 28.9609 12 29.4696 12 30C12 30.5304 12.2107 31.0391 12.5858 31.4142C12.9609 31.7893 13.4696 32 14 32C14.5304 32 15.0391 31.7893 15.4142 31.4142C15.7893 31.0391 16 30.5304 16 30ZM34 16C34.5304 16 35.0391 15.7893 35.4142 15.4142C35.7893 15.0391 36 14.5304 36 14C36 13.4696 35.7893 12.9609 35.4142 12.5858C35.0391 12.2107 34.5304 12 34 12C33.4696 12 32.9609 12.2107 32.5858 12.5858C32.2107 12.9609 32 13.4696 32 14C32 14.5304 32.2107 15.0391 32.5858 15.4142C32.9609 15.7893 33.4696 16 34 16Z" fill="white"/>
</svg>
