<svg width="384" height="384" viewBox="0 0 384 384" fill="none" xmlns="http://www.w3.org/2000/svg">
<rect width="384" height="384" rx="64" fill="white"/>
<path d="M320 112C320 137.1 290.45 174.55 277.7 189.5C275.8 191.7 273 192.55 270.45 192H224C215.15 192 208 199.15 208 208C208 216.85 215.15 224 224 224H272C298.5 224 320 245.5 320 272C320 298.5 298.5 320 272 320H133.8C138.15 315.05 143.45 308.7 148.8 301.6C151.95 297.4 155.2 292.8 158.3 288H272C280.85 288 288 280.85 288 272C288 263.15 280.85 256 272 256H224C197.5 256 176 234.5 176 208C176 181.5 197.5 160 224 160H243.9C233.4 144.25 224 126.15 224 112C224 85.5 245.5 64 272 64C298.5 64 320 85.5 320 112ZM122.55 308.55C120.65 310.7 118.95 312.6 117.5 314.2L116.6 315.2L116.5 315.1C113.5 317.4 109.2 317.1 106.5 314.2C93.9 300.5 64 265.25 64 240C64 213.5 85.5 192 112 192C138.5 192 160 213.5 160 240C160 255 149.45 273.5 138.25 288.95C132.9 296.3 127.4 302.95 122.85 308.2L122.55 308.55ZM128 240C128 235.757 126.314 231.687 123.314 228.686C120.313 225.686 116.243 224 112 224C107.757 224 103.687 225.686 100.686 228.686C97.6857 231.687 96 235.757 96 240C96 244.243 97.6857 248.313 100.686 251.314C103.687 254.314 107.757 256 112 256C116.243 256 120.313 254.314 123.314 251.314C126.314 248.313 128 244.243 128 240ZM272 128C276.243 128 280.313 126.314 283.314 123.314C286.314 120.313 288 116.243 288 112C288 107.757 286.314 103.687 283.314 100.686C280.313 97.6857 276.243 96 272 96C267.757 96 263.687 97.6857 260.686 100.686C257.686 103.687 256 107.757 256 112C256 116.243 257.686 120.313 260.686 123.314C263.687 126.314 267.757 128 272 128Z" fill="#0E7C86"/>
</svg>
